<?xml version="1.0" standalone="no"?>
<!DOCTYPE svg PUBLIC "-//W3C//DTD SVG 20010904//EN"
 "http://www.w3.org/TR/2001/REC-SVG-20010904/DTD/svg10.dtd">
<svg version="1.0" xmlns="http://www.w3.org/2000/svg"
 width="320.000000pt" height="320.000000pt" viewBox="0 0 320.000000 320.000000"
 preserveAspectRatio="xMidYMid meet">
<metadata>
Created by potrace 1.11, written by Peter Selinger 2001-2013
</metadata>
<g transform="translate(0.000000,320.000000) scale(0.100000,-0.100000)"
fill="#000000" stroke="none">
<path d="M685 2528 c-55 -10 -97 -15 -135 -17 l-25 -2 28 -15 c28 -15 74 -24
166 -29 30 -2 64 -6 76 -9 24 -6 41 3 40 22 0 15 -60 44 -69 34 -4 -3 -12 1
-19 10 -10 12 -22 13 -62 6z"/>
<path d="M236 2509 c-17 -4 -67 -6 -112 -3 -51 3 -85 1 -89 -6 -3 -5 1 -10 9
-10 9 0 16 -4 16 -9 0 -5 25 -8 58 -5 31 3 107 6 167 8 61 2 119 7 129 11 14
6 17 5 12 -3 -11 -17 13 -15 31 3 25 25 8 29 -73 17 -51 -8 -81 -9 -94 -2 -10
6 -20 10 -22 9 -2 0 -16 -5 -32 -10z"/>
<path d="M1590 2502 c-8 -3 -20 -11 -27 -18 -11 -10 -7 -18 22 -40 19 -14 48
-27 64 -28 16 -1 33 -5 37 -9 11 -11 84 -8 84 4 0 6 8 8 19 4 11 -3 22 -1 26
5 7 11 -6 18 -42 23 -11 2 -27 8 -35 13 -25 20 -78 36 -98 31 -11 -3 -23 1
-28 7 -4 7 -14 11 -22 8z"/>
<path d="M2277 2426 c-15 -23 -15 -24 11 -29 15 -3 29 -2 32 1 8 11 43 11 61
1 12 -6 20 -5 25 3 4 7 3 8 -4 4 -7 -4 -12 -1 -12 8 0 40 -89 49 -113 12z"/>
<path d="M1992 2384 c-1 -14 2 -23 8 -19 12 7 14 45 2 45 -4 0 -9 -11 -10 -26z"/>
<path d="M1900 2390 c0 -10 41 -31 48 -25 1 1 0 10 -4 19 -7 17 -44 23 -44 6z"/>
<path d="M2068 2393 c6 -2 18 -2 25 0 6 3 1 5 -13 5 -14 0 -19 -2 -12 -5z"/>
<path d="M2755 2371 c2 -5 -9 -11 -25 -15 -18 -3 -30 -12 -30 -21 0 -12 11
-15 48 -14 26 0 61 -2 77 -5 17 -4 80 -8 142 -9 89 -2 115 -6 130 -20 11 -9
24 -17 29 -17 5 0 24 -13 42 -29 l32 -30 0 58 0 59 -37 7 c-21 4 -40 10 -43
14 -10 14 -154 29 -168 18 -9 -8 -16 -7 -20 0 -4 6 -44 11 -95 11 -48 0 -85
-3 -82 -7z"/>
<path d="M2566 2358 c-15 -8 -15 -10 0 -25 12 -13 17 -14 24 -3 4 7 13 9 20 5
23 -14 82 -15 77 -2 -2 7 -10 12 -18 13 -8 0 -21 3 -29 7 -33 12 -58 14 -74 5z"/>
<path d="M1950 2229 c0 -5 -12 -9 -27 -9 -18 0 -23 -3 -16 -8 21 -13 253 -15
253 -2 0 6 -6 12 -12 15 -28 8 -198 12 -198 4z"/>
<path d="M2193 2203 c9 -2 25 -2 35 0 9 3 1 5 -18 5 -19 0 -27 -2 -17 -5z"/>
<path d="M60 2091 c0 -5 -9 -11 -20 -14 -26 -7 -26 -43 0 -50 29 -8 61 23 54
51 -6 21 -34 32 -34 13z"/>
<path d="M1905 2043 c-11 -3 -25 -9 -31 -14 -6 -5 -33 -12 -60 -16 -55 -7
-103 -32 -154 -78 -19 -18 -51 -38 -71 -44 -43 -14 -79 -45 -79 -70 0 -10 -8
-29 -18 -42 -10 -13 -24 -39 -31 -57 -8 -18 -19 -36 -25 -40 -15 -9 -46 -74
-46 -95 0 -12 19 -27 35 -27 2 0 11 23 20 51 10 28 26 60 36 70 11 11 19 25
19 33 0 17 124 146 140 146 6 0 9 4 5 9 -3 5 12 15 32 21 21 7 61 23 89 37 68
32 145 52 169 43 11 -4 81 -10 155 -14 147 -7 229 -28 365 -92 60 -28 155
-102 155 -120 0 -3 29 -35 65 -70 36 -35 71 -80 79 -99 9 -20 22 -38 31 -41 8
-3 15 -14 15 -24 0 -11 5 -22 10 -25 6 -3 10 -17 10 -30 0 -13 4 -26 9 -29 5
-3 11 -20 15 -38 5 -29 60 -88 81 -88 16 0 36 -32 30 -49 -4 -14 -19 -20 -64
-25 l-59 -7 16 -49 c14 -43 14 -53 2 -76 -8 -14 -25 -30 -38 -35 -40 -15 -152
-144 -152 -174 0 -2 17 1 37 5 22 5 50 23 69 44 18 20 37 36 41 36 13 0 43 55
43 79 0 12 3 20 8 18 12 -4 112 85 112 100 0 7 12 32 26 54 31 49 23 86 -22
108 -36 18 -57 38 -50 49 9 15 -33 116 -54 132 -11 9 -22 33 -26 58 -6 39 -59
121 -85 130 -5 2 -16 18 -24 35 -13 28 -53 57 -78 57 -5 0 -28 19 -51 42 -57
57 -154 128 -177 128 -10 0 -38 11 -63 25 -25 14 -52 25 -61 25 -9 0 -30 7
-47 16 -24 13 -68 17 -182 19 -83 2 -160 1 -171 -2z"/>
<path d="M482 1998 c-9 -4 -29 -7 -43 -7 -15 -1 -33 -8 -40 -17 -7 -9 -36 -26
-64 -39 -27 -12 -63 -34 -78 -49 -15 -14 -33 -26 -40 -26 -7 0 -31 -18 -54
-40 -32 -30 -46 -54 -57 -94 -7 -30 -10 -58 -6 -63 5 -4 10 -17 12 -28 l5 -20
8 20 c4 11 13 34 21 52 8 17 14 36 14 42 0 7 16 27 35 47 19 19 35 41 35 49 0
8 12 18 28 21 15 4 45 17 68 29 65 36 186 55 336 54 131 -1 135 -1 178 -30 25
-17 71 -38 103 -47 60 -17 75 -29 184 -145 28 -31 60 -60 71 -66 13 -7 22 -26
26 -55 4 -24 13 -47 21 -50 9 -3 15 -19 15 -40 0 -27 -5 -36 -22 -42 -33 -10
-52 -32 -40 -47 11 -14 26 -68 23 -82 -1 -5 4 -14 12 -20 7 -5 19 -20 26 -32
6 -13 19 -23 27 -23 9 0 31 -7 50 -16 24 -12 34 -23 34 -40 0 -12 -4 -25 -9
-28 -5 -3 -12 -21 -15 -41 -9 -45 -71 -171 -88 -177 -7 -3 -51 -4 -98 -2 -47
1 -222 5 -389 8 -182 4 -309 10 -316 16 -7 6 -19 8 -27 5 -28 -11 -68 13 -68
40 0 31 17 32 67 5 21 -11 53 -20 71 -20 32 0 92 27 92 41 0 4 11 10 24 13 25
6 56 31 56 45 0 13 -44 27 -75 24 -109 -12 -225 5 -225 32 1 32 19 38 123 39
93 1 108 4 131 23 21 18 27 19 36 8 6 -8 10 -29 8 -47 -2 -24 1 -33 12 -33 9
0 16 12 18 30 4 34 20 57 33 49 5 -3 9 -1 9 4 0 5 16 22 36 37 35 27 42 28
150 29 62 1 115 4 118 7 4 3 -34 14 -84 24 -88 17 -144 36 -155 56 -4 5 -94 9
-213 8 -167 0 -220 -4 -277 -19 -38 -10 -111 -21 -162 -25 -85 -7 -92 -6 -102
13 -17 31 -14 62 7 63 31 2 37 4 60 17 23 13 30 50 12 68 -6 6 -12 22 -14 35
-1 13 -5 31 -9 39 -3 8 -7 28 -9 44 l-3 30 -14 -30 c-7 -16 -20 -41 -27 -56
-8 -14 -14 -47 -14 -72 0 -33 -6 -52 -20 -66 -18 -18 -20 -33 -20 -132 1 -84
3 -108 11 -95 6 10 24 26 40 36 29 18 31 18 69 -1 42 -21 48 -33 52 -108 3
-40 7 -47 36 -59 17 -8 32 -21 32 -28 0 -7 5 -13 10 -13 6 0 10 -6 10 -12 0
-7 19 -26 41 -42 41 -29 41 -29 35 -78 -4 -28 -15 -62 -26 -77 -10 -14 -22
-47 -25 -72 -6 -41 -4 -49 18 -70 14 -13 30 -36 36 -51 7 -19 15 -26 26 -22
10 4 15 0 15 -13 0 -28 50 -72 90 -79 59 -12 129 -55 148 -91 7 -12 12 -36 12
-53 0 -27 3 -31 23 -28 16 2 22 10 22 28 0 37 44 53 175 62 63 5 149 12 190
16 75 7 75 7 78 38 3 29 7 32 90 59 131 41 141 46 172 77 16 15 39 28 53 28
13 0 32 9 43 21 16 17 16 22 4 29 -23 15 -157 12 -188 -4 -15 -7 -43 -17 -62
-21 -35 -8 -122 -43 -171 -70 -14 -8 -28 -12 -31 -9 -3 2 -16 0 -30 -5 -41
-16 -96 -22 -268 -30 -174 -8 -205 -4 -297 39 -24 11 -47 20 -53 20 -5 0 -11
3 -11 8 -1 4 -3 16 -4 27 -2 11 -7 32 -13 46 -11 28 -5 109 8 109 5 0 17 16
29 35 13 22 28 35 41 35 12 0 30 5 41 10 11 7 165 12 401 14 445 5 493 7 533
27 39 18 42 39 14 95 -19 37 -21 48 -11 62 7 9 15 24 18 34 6 17 41 31 56 22
5 -3 14 -20 22 -37 7 -18 28 -43 47 -56 19 -13 46 -43 61 -67 15 -25 42 -52
59 -62 18 -9 84 -68 147 -130 116 -113 131 -120 132 -66 0 46 63 63 144 39
105 -31 322 -9 441 44 11 5 36 15 55 22 76 27 78 45 7 48 -34 1 -70 -5 -98
-17 -24 -10 -70 -24 -101 -31 -32 -7 -60 -17 -64 -22 -3 -5 -10 -6 -17 -2 -6
4 -52 8 -102 9 -228 7 -252 12 -365 75 -19 10 -45 19 -57 19 -21 0 -183 151
-183 171 0 4 -14 21 -31 37 -24 23 -31 39 -36 85 -4 39 -2 61 7 72 19 23 8 27
-64 26 -57 -1 -66 2 -66 17 1 24 22 50 38 45 6 -3 12 3 12 13 0 9 7 22 16 29
14 10 12 14 -17 33 -19 12 -30 22 -26 22 5 0 -1 14 -13 30 -12 17 -26 28 -31
24 -6 -3 -27 5 -47 18 -20 14 -45 27 -54 31 -9 3 -22 25 -28 49 -11 38 -30 70
-75 121 -8 9 -15 19 -15 22 0 3 -30 36 -67 72 -75 73 -159 126 -219 137 -21 4
-50 14 -64 21 -28 14 -318 25 -348 13z"/>
<path d="M1743 1340 c-110 -3 -166 -9 -175 -17 -9 -10 -9 -13 5 -13 10 0 21
-8 24 -17 11 -29 110 -122 138 -129 14 -3 31 -1 38 5 16 12 46 8 89 -13 43
-22 98 -31 98 -17 0 8 14 11 38 9 72 -6 42 -68 -33 -68 -13 0 -26 -4 -29 -9
-3 -5 -15 -7 -26 -4 -35 9 -23 -22 13 -35 46 -17 66 -15 144 10 82 26 105 43
102 78 -2 14 3 35 9 48 7 12 10 22 6 22 -13 0 20 31 64 61 35 24 51 29 75 23
17 -3 49 -6 72 -6 22 1 78 -6 125 -14 112 -19 260 -35 271 -28 5 3 9 11 9 18
0 20 -45 35 -155 52 -22 3 -48 10 -57 15 -48 26 -477 40 -845 29z"/>
<path d="M1175 1319 c-4 -6 -29 -8 -61 -6 -56 5 -60 2 -44 -23 9 -13 11 -13
20 0 7 10 13 11 18 5 10 -15 72 -11 82 5 6 9 10 8 18 -6 6 -11 14 -15 19 -10
4 5 2 11 -4 13 -7 3 -13 11 -13 19 0 16 -26 19 -35 3z"/>
<path d="M1756 1123 c-13 -13 -5 -43 13 -53 45 -23 121 -7 121 26 0 17 -120
41 -134 27z"/>
<path d="M1426 551 c-42 -6 -55 -21 -34 -38 7 -6 75 -13 150 -17 135 -6 137
-6 149 16 9 16 9 23 0 26 -6 2 -9 7 -6 12 5 9 -198 9 -259 1z"/>
<path d="M2075 530 c3 -5 8 -10 11 -10 2 0 4 5 4 10 0 6 -5 10 -11 10 -5 0 -7
-4 -4 -10z"/>
<path d="M2090 500 c0 -5 5 -10 10 -10 6 0 10 5 10 10 0 6 -4 10 -10 10 -5 0
-10 -4 -10 -10z"/>
<path d="M1243 483 c-27 -5 -30 -21 -7 -30 21 -8 69 18 52 29 -7 4 -15 7 -18
6 -3 0 -15 -3 -27 -5z"/>
<path d="M1425 330 c-3 -5 1 -10 10 -10 9 0 13 5 10 10 -3 6 -8 10 -10 10 -2
0 -7 -4 -10 -10z"/>
<path d="M844 316 c-12 -32 6 -37 144 -35 75 2 175 1 222 0 91 -3 143 5 137
22 -4 14 -57 21 -57 7 0 -14 -32 -12 -53 4 -13 10 -64 14 -203 15 -155 2 -185
-1 -190 -13z"/>
<path d="M0 75 l0 -75 41 0 c22 0 38 3 36 8 -2 4 -18 37 -36 75 -18 37 -34 67
-37 67 -2 0 -4 -34 -4 -75z"/>
</g>
</svg>
